<?xml version="1.0" standalone="no"?><!DOCTYPE svg PUBLIC "-//W3C//DTD SVG 1.1//EN" "http://www.w3.org/Graphics/SVG/1.1/DTD/svg11.dtd"><svg class="icon" width="200px" height="200.00px" viewBox="0 0 1024 1024" version="1.1" xmlns="http://www.w3.org/2000/svg"><path fill="#2c2c2c" d="M511.998977 568.102762c188.671057 0 341.619518-127.300314 341.619518-284.33279 0-0.051165 0-0.101307 0-0.152473-0.005117-8.283664-6.891967-14.923898-15.176654-14.923898L185.556113 268.693602c-8.283664 0-15.170514 6.641257-15.175631 14.923898 0 0.051165 0 0.101307 0 0.152473C170.380482 440.803471 323.328943 568.102762 511.998977 568.102762zM216.009705 333.268316c-2.742461-9.876951 3.050476-20.097734 12.927427-22.834055 9.846252-2.730181 20.097734 3.044336 22.834055 12.927427 4.88731 17.627473 13.362332 34.692127 25.190729 50.707892 6.083555 8.245801 4.331655 19.86749-3.90903 25.957185-3.316535 2.446725-7.182586 3.624551-11.012821 3.624551-5.690606 0-11.302417-2.603291-14.945387-7.532557C232.567823 376.436488 222.110657 355.293959 216.009705 333.268316zM925.001265 163.599032 98.997712 163.599032c-16.826224 0-30.591739 13.766538-30.591739 30.592762 0 16.826224 13.766538 30.593785 30.591739 30.593785L925.001265 224.785579c16.826224 0 30.592762-13.766538 30.592762-30.593785C955.594027 177.366593 941.827489 163.599032 925.001265 163.599032zM512 636.423801c-20.496823 0-37.115316 16.618493-37.115316 37.115316l0 150.514015c0 20.496823 16.618493 37.115316 37.115316 37.115316 20.496823 0 37.115316-16.618493 37.115316-37.115316L549.115316 673.539116C549.115316 653.04127 532.496823 636.423801 512 636.423801zM824.789912 529.397229c-14.485923-14.498202-37.996382-14.498202-52.483328 0-14.498202 14.492062-14.498202 37.990243 0 52.483328l106.427938 106.427938c7.242961 7.249101 16.745383 10.873652 26.241664 10.873652 9.496282 0 18.998703-3.624551 26.241664-10.873652 14.498202-14.492062 14.498202-37.990243 0-52.482305L824.789912 529.397229zM247.549026 532.74958c-14.485923-14.498202-37.996382-14.498202-52.483328 0l-106.434078 106.434078c-14.498202 14.492062-14.498202 37.990243 0 52.483328 7.242961 7.249101 16.745383 10.873652 26.241664 10.873652s18.998703-3.624551 26.241664-10.873652l106.434078-106.434078C262.047228 570.740846 262.047228 547.242665 247.549026 532.74958zM365.823779 611.335403c-18.901489-7.998161-40.667212 0.839111-48.646953 19.711947l-58.663074 138.613988c-7.992021 18.877953 0.840134 40.661072 19.711947 48.646953 4.723581 1.99954 9.628288 2.948145 14.450107 2.948145 14.461363 0 28.210505-8.505721 34.19787-22.660092L385.534703 659.983379C393.526725 641.105427 384.700709 619.322307 365.823779 611.335403zM694.03594 632.279411c-7.514137-19.065218-29.05064-28.42233-48.145533-20.914332-19.065218 7.521301-28.428469 29.075199-20.913309 48.145533l55.213509 140.022057c5.757121 14.600533 19.741623 23.511483 34.541701 23.511483 4.5312 0 9.134031-0.839111 13.603833-2.598174 19.065218-7.520277 28.428469-29.074176 20.913309-48.145533L694.03594 632.279411z" /></svg>