<?xml version="1.0" encoding="utf-8"?>
<!-- Generator: Adobe Illustrator 16.0.0, SVG Export Plug-In . SVG Version: 6.00 Build 0)  -->
<!DOCTYPE svg PUBLIC "-//W3C//DTD SVG 1.1//EN" "http://www.w3.org/Graphics/SVG/1.1/DTD/svg11.dtd">
<svg version="1.1" id="图层_1" xmlns="http://www.w3.org/2000/svg" xmlns:xlink="http://www.w3.org/1999/xlink" x="0px" y="0px"
	 width="100px" height="100px" viewBox="0 0 100 100" enable-background="new 0 0 100 100" xml:space="preserve">
<g>
	<rect x="0.5" y="0.5" fill="none" stroke="#231815" stroke-miterlimit="10" width="99" height="99"/>
	<path fill="#231815" d="M0.506,13.538v6.465c1.785,0,3.233-1.448,3.233-3.233C3.739,14.985,2.293,13.538,0.506,13.538z"/>
	<path fill="#231815" d="M0.506,46.213v6.464c1.785,0,3.233-1.447,3.233-3.232C3.739,47.659,2.293,46.213,0.506,46.213z"/>
	<path fill="#231815" d="M0.506,79.125v6.465c1.785,0,3.233-1.447,3.233-3.232C3.739,80.573,2.293,79.125,0.506,79.125z"/>
	<path fill="#231815" d="M0.506,93.035V99.5c1.785,0,3.233-1.449,3.233-3.234C3.739,94.481,2.293,93.035,0.506,93.035z"/>
	<path fill="#231815" d="M0.506,13.538v6.465c1.785,0,3.233-1.448,3.233-3.233C3.739,14.985,2.293,13.538,0.506,13.538z"/>
	<path fill="#231815" d="M0.506,46.213v6.464c1.785,0,3.233-1.447,3.233-3.232C3.739,47.659,2.293,46.213,0.506,46.213z"/>
	<path fill="#231815" d="M0.506,79.125v6.465c1.785,0,3.233-1.447,3.233-3.232C3.739,80.573,2.293,79.125,0.506,79.125z"/>
	<path fill="#231815" d="M0.506,93.035V99.5c1.785,0,3.233-1.449,3.233-3.234C3.739,94.481,2.293,93.035,0.506,93.035z"/>
	<path fill="#231815" d="M99.5,13.538v6.465c-1.785,0-3.233-1.448-3.233-3.233C96.267,14.985,97.715,13.538,99.5,13.538z"/>
	<path fill="#231815" d="M99.5,46.213v6.464c-1.785,0-3.233-1.447-3.233-3.232C96.267,47.659,97.715,46.213,99.5,46.213z"/>
	<path fill="#231815" d="M99.5,79.125v6.465c-1.785,0-3.233-1.447-3.233-3.232C96.267,80.573,97.715,79.125,99.5,79.125z"/>
	<path fill="#231815" d="M99.5,93.035V99.5c-1.785,0-3.233-1.449-3.233-3.234C96.267,94.481,97.715,93.035,99.5,93.035z"/>
	<path fill="#231815" d="M35.917,0.579h-6.464c0,1.786,1.448,3.233,3.233,3.233C34.471,3.812,35.917,2.365,35.917,0.579z"/>
	<path fill="#231815" d="M6.965,0.579H0.5c0,1.786,1.448,3.233,3.233,3.233C5.518,3.812,6.965,2.365,6.965,0.579z"/>
	<path fill="#231815" d="M99.5,0.579h-6.465c0,1.786,1.447,3.233,3.231,3.233C98.052,3.812,99.5,2.365,99.5,0.579z"/>
	<path fill="#231815" d="M68.359,0.579h-6.465c0,1.786,1.447,3.233,3.231,3.233C66.911,3.812,68.359,2.365,68.359,0.579z"/>
</g>
</svg>
